<?xml version="1.0" encoding="utf-8"?>
<!-- Generator: Adobe Illustrator 27.3.1, SVG Export Plug-In . SVG Version: 6.00 Build 0)  -->
<svg version="1.1" id="Layer_1" xmlns="http://www.w3.org/2000/svg" xmlns:xlink="http://www.w3.org/1999/xlink" x="0px" y="0px"
	 viewBox="0 0 7 11" style="enable-background:new 0 0 7 11;" xml:space="preserve">
<style type="text/css">
	.st0{fill:#1A1A1A;}
</style>
<path class="st0" d="M0.7,9.9C0.5,9.7,0.4,9.5,0.4,9.3c0-0.2,0.1-0.4,0.2-0.6l3.4-3.4L0.7,1.9C0.5,1.7,0.4,1.5,0.4,1.3
	c0-0.2,0.1-0.4,0.2-0.6S1,0.4,1.3,0.4c0.2,0,0.4,0.1,0.6,0.2l4,4C6,4.8,6.1,4.8,6.1,5c0,0.1,0.1,0.2,0.1,0.3c0,0.1,0,0.2-0.1,0.3
	c0,0.1-0.1,0.2-0.2,0.3l-4,4c-0.2,0.2-0.4,0.2-0.6,0.2C1,10.1,0.8,10.1,0.7,9.9z"/>
</svg>
